<svg width="1024" height="1024" viewBox="0 0 1024 1024" fill="none" xmlns="http://www.w3.org/2000/svg">
<g clip-path="url(#clip0)">
<circle cx="512" cy="512" r="512" fill="url(#paint0_linear)"/>
<path fill-rule="evenodd" clip-rule="evenodd" d="M292 662L292 762L392 762L392 662L292 662ZM292 462L292 562L392 562L392 462L292 462ZM692 462L692 562L792 562L792 462L692 462ZM292 362L292 262L392 262L392 362L292 362ZM492 462L492 362L592 362L592 462L492 462ZM492 562L492 662L592 662L592 562L492 562Z" fill="black"/>
</g>
<defs>
<linearGradient id="paint0_linear" x1="0.0153052" y1="511.441" x2="1024" y2="511.446" gradientUnits="userSpaceOnUse">
<stop stop-color="#00FF94"/>
<stop offset="1" stop-color="#00A25D"/>
</linearGradient>
<clipPath id="clip0">
<rect width="1024" height="1024" fill="white"/>
</clipPath>
</defs>
</svg>
