<svg width="1024" height="1024" viewBox="0 0 1024 1024" fill="none" xmlns="http://www.w3.org/2000/svg">
<circle cx="512" cy="512" r="512" fill="white"/>
<path fill-rule="evenodd" clip-rule="evenodd" d="M299 656L299 752L395 752L395 656L299 656ZM299 464L299 560L395 560L395 464L299 464ZM683 464L683 560L779 560L779 464L683 464ZM299 368L299 272L395 272L395 368L299 368ZM491 463.999L491 367.999L587 367.999L587 463.999L491 463.999ZM491 559.999L491 655.999L587 655.999L587 559.999L491 559.999Z" fill="#131418"/>
</svg>
