<?xml version="1.0" encoding="UTF-8"?>
<svg width="20px" height="20px" viewBox="0 0 20 20" version="1.1" xmlns="http://www.w3.org/2000/svg" xmlns:xlink="http://www.w3.org/1999/xlink">
    <!-- Generator: Sketch 59.1 (86144) - https://sketch.com -->
    <title>add-photo</title>
    <desc>Created with Sketch.</desc>
    <g id="Page-1" stroke="none" stroke-width="1" fill="none" fill-rule="evenodd">
        <g id="add-photo" fill="#000000" fill-rule="nonzero">
            <path d="M17.708,20 L2.292,20 C1.028,20 0,18.972 0,17.708 L0,5.375 C0,4.11 1.028,3.083 2.292,3.083 L4.438,3.083 C5.633,1.17 7.722,0 10,0 C12.277,0 14.367,1.17 15.562,3.083 L17.708,3.083 C18.972,3.083 20,4.11 20,5.375 L20,17.708 C20,18.972 18.972,20 17.708,20 Z M2.292,4.583 C1.855,4.583 1.5,4.938 1.5,5.375 L1.5,17.708 C1.5,18.145 1.855,18.5 2.292,18.5 L17.708,18.5 C18.145,18.5 18.5,18.145 18.5,17.708 L18.5,5.375 C18.5,4.938 18.145,4.583 17.708,4.583 L15.258,4.583 C14.941,4.633 14.626,4.488 14.476,4.201 C13.596,2.536 11.882,1.501 10,1.501 C8.117,1.501 6.402,2.536 5.524,4.203 C5.364,4.505 5.022,4.663 4.691,4.583 L2.293,4.583 L2.292,4.583 Z" id="Shape"></path>
            <path d="M10,6.167 C7.32,6.167 5.14,8.347 5.14,11.027 C5.14,13.707 7.32,15.887 10,15.887 C12.68,15.887 14.86,13.707 14.86,11.027 C14.86,8.347 12.68,6.167 10,6.167 Z M12,11.75 L10.75,11.75 L10.75,13 C10.75,13.414 10.414,13.75 10,13.75 C9.586,13.75 9.25,13.414 9.25,13 L9.25,11.75 L8,11.75 C7.586,11.75 7.25,11.414 7.25,11 C7.25,10.586 7.586,10.25 8,10.25 L9.25,10.25 L9.25,9 C9.25,8.586 9.586,8.25 10,8.25 C10.414,8.25 10.75,8.586 10.75,9 L10.75,10.25 L12,10.25 C12.414,10.25 12.75,10.586 12.75,11 C12.75,11.414 12.414,11.75 12,11.75 Z" id="Shape"></path>
        </g>
    </g>
</svg>