<?xml version="1.0" encoding="UTF-8"?>
<svg width="26px" height="26px" viewBox="0 0 26 26" version="1.1" xmlns="http://www.w3.org/2000/svg" xmlns:xlink="http://www.w3.org/1999/xlink">
    <!-- Generator: Sketch 64 (93537) - https://sketch.com -->
    <title>ballot</title>
    <desc>Created with Sketch.</desc>
    <g id="Page-1" stroke="none" stroke-width="1" fill="none" fill-rule="evenodd">
        <g id="ballot" fill="currentColor">
            <path d="M14.4167,9.45833 L21.5,9.45833 L21.5,6.625 L14.4167,6.625 L14.4167,9.45833 Z M14.4167,19.375 L21.5,19.375 L21.5,16.5417 L14.4167,16.5417 L14.4167,19.375 Z M22.9167,25.75 L3.08333,25.75 C1.525,25.75 0.25,24.475 0.25,22.9167 L0.25,3.08333 C0.25,1.525 1.525,0.25 3.08333,0.25 L22.9167,0.25 C24.475,0.25 25.75,1.525 25.75,3.08333 L25.75,22.9167 C25.75,24.475 24.475,25.75 22.9167,25.75 Z M4.5,11.5833 L11.5833,11.5833 L11.5833,4.5 L4.5,4.5 L4.5,11.5833 Z M5.91667,5.91667 L10.1667,5.91667 L10.1667,10.1667 L5.91667,10.1667 L5.91667,5.91667 Z M4.5,21.5 L11.5833,21.5 L11.5833,14.4167 L4.5,14.4167 L4.5,21.5 Z M5.91667,15.8333 L10.1667,15.8333 L10.1667,20.0833 L5.91667,20.0833 L5.91667,15.8333 Z" id="Shape"></path>
        </g>
    </g>
</svg>