<?xml version="1.0" encoding="UTF-8"?>
<svg width="35px" height="35px" viewBox="0 0 35 35" version="1.1" xmlns="http://www.w3.org/2000/svg" xmlns:xlink="http://www.w3.org/1999/xlink">
    <desc>Created with Sketch.</desc>
    <g id="Page-1" stroke="none" stroke-width="1" fill="none" fill-rule="evenodd">
        <g id="camera" fill="currentColor" fill-rule="nonzero">
            <path d="M30.989,35 L4.011,35 C1.799,35 0,33.201 0,30.989 L0,9.40625 C0,7.1925 1.799,5.39525 4.011,5.39525 L7.7665,5.39525 C9.85775,2.0475 13.5135,0 17.5,0 C21.4848,0 25.1423,2.0475 27.2335,5.39525 L30.989,5.39525 C33.201,5.39525 35,7.1925 35,9.40625 L35,30.989 C35,33.201 33.201,35 30.989,35 Z M4.011,8.02025 C3.24625,8.02025 2.625,8.6415 2.625,9.40625 L2.625,30.989 C2.625,31.7537 3.24625,32.375 4.011,32.375 L30.989,32.375 C31.7537,32.375 32.375,31.7537 32.375,30.989 L32.375,9.40625 C32.375,8.6415 31.7537,8.02025 30.989,8.02025 L26.7015,8.02025 C26.1468,8.10775 25.5955,7.854 25.333,7.35175 C23.793,4.438 20.7935,2.62675 17.5,2.62675 C14.2048,2.62675 11.2035,4.438 9.667,7.35525 C9.387,7.88375 8.7885,8.16025 8.20925,8.02025 L4.01275,8.02025 L4.011,8.02025 Z" id="Shape"></path>
            <path d="M17.5,10.7922 C12.81,10.7922 8.995,14.6072 8.995,19.2972 C8.995,23.9872 12.81,27.8022 17.5,27.8022 C22.19,27.8022 26.005,23.9872 26.005,19.2972 C26.005,14.6072 22.19,10.7922 17.5,10.7922 Z M21,20.5625 L18.8125,20.5625 L18.8125,22.75 C18.8125,23.4745 18.2245,24.0625 17.5,24.0625 C16.7755,24.0625 16.1875,23.4745 16.1875,22.75 L16.1875,20.5625 L14,20.5625 C13.2755,20.5625 12.6875,19.9745 12.6875,19.25 C12.6875,18.5255 13.2755,17.9375 14,17.9375 L16.1875,17.9375 L16.1875,15.75 C16.1875,15.0255 16.7755,14.4375 17.5,14.4375 C18.2245,14.4375 18.8125,15.0255 18.8125,15.75 L18.8125,17.9375 L21,17.9375 C21.7245,17.9375 22.3125,18.5255 22.3125,19.25 C22.3125,19.9745 21.7245,20.5625 21,20.5625 Z" id="Shape"></path>
        </g>
    </g>
</svg>