<?xml version="1.0" encoding="utf-8"?>
<!-- Generator: Adobe Illustrator 23.0.6, SVG Export Plug-In . SVG Version: 6.00 Build 0)  -->
<svg version="1.1" xmlns="http://www.w3.org/2000/svg" xmlns:xlink="http://www.w3.org/1999/xlink" x="0px" y="0px"
	 viewBox="0 0 150 150" style="enable-background:new 0 0 150 150;" xml:space="preserve">
<style type="text/css">
	.st0{fill:url(#SVGID_1_);}
	.st1{fill:#2059EB;}
</style>
<g id="Layer_1">
</g>
<g id="Layer_5">
	<g>
		<linearGradient id="SVGID_1_" gradientUnits="userSpaceOnUse" x1="75" y1="149" x2="75" y2="1">
			<stop  offset="0" style="stop-color:#1447EA"/>
			<stop  offset="1" style="stop-color:#2B65FB"/>
		</linearGradient>
		<path class="st0" d="M75,1C34.1,1,1,34.1,1,75s33.1,74,74,74s74-33.1,74-74S115.9,1,75,1z M75,118.3c-23.9,0-43.3-19.4-43.3-43.3
			S51.1,31.7,75,31.7s43.3,19.4,43.3,43.3S98.9,118.3,75,118.3z"/>
		<path class="st1" d="M85.5,88.9H64.5c-1.8,0-3.3-1.5-3.3-3.3V64.5c0-1.8,1.5-3.3,3.3-3.3h21.1c1.8,0,3.3,1.5,3.3,3.3v21.1
			C88.9,87.4,87.4,88.9,85.5,88.9z"/>
	</g>
</g>
</svg>
