<?xml version="1.0" encoding="UTF-8"?>
<svg width="12px" height="12px" viewBox="0 0 12 12" version="1.1" xmlns="http://www.w3.org/2000/svg" xmlns:xlink="http://www.w3.org/1999/xlink">
    <g id="Page-1" stroke="none" stroke-width="1" fill="none" fill-rule="evenodd">
        <g id="help" fill="currentColor" fill-rule="nonzero">
            <path d="M5.99993143,0.285711429 C2.84564571,0.285711429 0.285642857,2.84571429 0.285642857,6 C0.285642857,9.15428571 2.84564571,11.7143143 5.99993143,11.7143143 C9.1542,11.7143143 11.7142286,9.15428571 11.7142286,6 C11.7142286,2.84571429 9.1542,0.285711429 5.99993143,0.285711429 Z M6.57136286,10.0000286 L5.4285,10.0000286 L5.4285,8.85711429 L6.57136286,8.85711429 L6.57136286,10.0000286 Z M7.75422857,5.57142857 L7.23993429,6.09714 C6.82850571,6.51428571 6.57136286,6.85714286 6.57136286,7.71428571 L5.4285,7.71428571 L5.4285,7.42856571 C5.4285,6.79999714 5.68564286,6.22856571 6.09707143,5.81142857 L6.80564571,5.09142857 C7.01707714,4.88571429 7.14278571,4.59999429 7.14278571,4.28571429 C7.14278571,3.65713714 6.6285,3.14285143 5.99993143,3.14285143 C5.37136286,3.14285143 4.85707714,3.65713714 4.85707714,4.28571429 L3.71421429,4.28571429 C3.71421429,3.02285143 4.73707714,1.99999714 5.99993143,1.99999714 C7.26278571,1.99999714 8.28565714,3.02285143 8.28565714,4.28571429 C8.28565714,4.78856571 8.07994286,5.24571429 7.75422857,5.57142857 Z" id="Shape"></path>
        </g>
    </g>
</svg>