<?xml version="1.0" encoding="UTF-8"?>
<svg width="41px" height="38px" viewBox="0 0 41 38" version="1.1" xmlns="http://www.w3.org/2000/svg" xmlns:xlink="http://www.w3.org/1999/xlink">
    <!-- Generator: Sketch 57.1 (83088) - https://sketch.com -->
    <title>metamask</title>
    <desc>Created with Sketch.</desc>
    <g id="Page-1" stroke="none" stroke-width="1" fill="none" fill-rule="evenodd">
        <g id="metamask" fill-rule="nonzero">
            <polygon id="Path" fill="#E2761B" points="38.2663 0.541275 22.7935 12.0518 25.6548 5.26077"></polygon>
            <polygon id="Path" fill="#E4761B" points="2.54663 0.541275 17.8951 12.1609 15.1737 5.26077"></polygon>
            <polygon id="Path" fill="#E4761B" points="32.6993 27.2227 28.5784 33.5466 37.3956 35.9764 39.9303 27.3629"></polygon>
            <polygon id="Path" fill="#E4761B" points="0.913818 27.3629 3.43301 35.9764 12.2502 33.5466 8.1293 27.2227"></polygon>
            <polygon id="Path" fill="#E4761B" points="11.7526 16.5377 9.29565 20.2603 18.0506 20.6497 17.7396 11.2263"></polygon>
            <polygon id="Path" fill="#E4761B" points="29.0603 16.5377 22.9956 11.1173 22.7935 20.6497 31.5329 20.2603"></polygon>
            <polygon id="Path" fill="#E4761B" points="12.2502 33.5466 17.5063 30.9765 12.9656 27.4252"></polygon>
            <polygon id="Path" fill="#E4761B" points="23.3066 30.9765 28.5783 33.5466 27.8474 27.4252"></polygon>
            <polygon id="Path" fill="#D7C1B3" points="28.578 33.5466 23.3064 30.9765 23.7263 34.4188 23.6796 35.8674"></polygon>
            <polygon id="Path" fill="#D7C1B3" points="12.25 33.5466 17.1484 35.8674 17.1173 34.4188 17.5061 30.9765"></polygon>
            <polygon id="Path" fill="#233447" points="17.2263 25.1512 12.8411 23.8584 15.9356 22.441"></polygon>
            <polygon id="Path" fill="#233447" points="23.5864 25.1512 24.8771 22.441 27.9872 23.8584"></polygon>
            <polygon id="Path" fill="#CD6116" points="12.2501 33.5466 12.9965 27.2228 8.12915 27.3629"></polygon>
            <polygon id="Path" fill="#CD6116" points="27.8318 27.2228 28.5782 33.5466 32.6991 27.3629"></polygon>
            <polygon id="Path" fill="#CD6116" points="31.5329 20.2603 22.7935 20.6497 23.6021 25.1512 24.8928 22.441 28.0029 23.8584"></polygon>
            <polygon id="Path" fill="#CD6116" points="12.8409 23.8584 15.9511 22.441 17.2262 25.1512 18.0504 20.6497 9.29541 20.2603"></polygon>
            <polygon id="Path" fill="#E4751F" points="9.29541 20.2603 12.9654 27.4253 12.8409 23.8584"></polygon>
            <polygon id="Path" fill="#E4751F" points="28.0027 23.8584 27.8472 27.4253 31.5327 20.2603"></polygon>
            <polygon id="Path" fill="#E4751F" points="18.0505 20.6497 17.2263 25.1512 18.2527 30.4626 18.4859 23.469"></polygon>
            <polygon id="Path" fill="#E4751F" points="22.7934 20.6497 22.3735 23.4534 22.5601 30.4626 23.602 25.1512"></polygon>
            <polygon id="Path" fill="#F6851B" points="23.6019 25.1512 22.5601 30.4625 23.3065 30.9765 27.8473 27.4252 28.0028 23.8584"></polygon>
            <polygon id="Path" fill="#F6851B" points="12.8411 23.8584 12.9655 27.4252 17.5062 30.9765 18.2527 30.4625 17.2263 25.1512"></polygon>
            <polygon id="Path" fill="#C0AD9E" points="23.6797 35.8674 23.7263 34.4188 23.3376 34.0761 17.475 34.0761 17.1173 34.4188 17.1484 35.8674 12.25 33.5466 13.9606 34.9484 17.4283 37.3627 23.3842 37.3627 26.8676 34.9484 28.5781 33.5466"></polygon>
            <polygon id="Path" fill="#161616" points="23.3066 30.9765 22.5601 30.4625 18.2526 30.4625 17.5062 30.9765 17.1174 34.4188 17.4751 34.0761 23.3377 34.0761 23.7264 34.4188"></polygon>
            <polygon id="Path" fill="#763D16" points="38.9194 12.7995 40.2412 6.44453 38.2663 0.541275 23.3066 11.6625 29.0604 16.5377 37.1933 18.9208 38.9972 16.8181 38.2197 16.2573 39.4637 15.1203 38.4996 14.3727 39.7436 13.4225"></polygon>
            <polygon id="Path" fill="#763D16" points="0.587158 6.44453 1.90896 12.7995 1.06923 13.4225 2.31327 14.3727 1.36469 15.1203 2.60874 16.2573 1.83121 16.8181 3.61952 18.9208 11.7525 16.5377 17.5062 11.6625 2.54653 0.541275"></polygon>
            <polygon id="Path" fill="#F6851B" points="37.1933 18.9208 29.0604 16.5377 31.5329 20.2603 27.8474 27.4252 32.6992 27.3629 39.9302 27.3629"></polygon>
            <polygon id="Path" fill="#F6851B" points="11.7526 16.5377 3.61962 18.9208 0.913818 27.3629 8.12929 27.3629 12.9655 27.4252 9.29559 20.2603"></polygon>
            <polygon id="Path" stroke="#F6851B" fill="#F6851B" stroke-linecap="round" stroke-linejoin="round" points="22.7934 20.6497 23.3065 11.6624 25.6702 5.26076 15.1736 5.26076 17.5062 11.6624 18.0504 20.6497 18.2371 23.4845 18.2526 30.4625 22.5601 30.4625 22.5912 23.4845"></polygon>
        </g>
    </g>
</svg>