<svg width="14" height="14" viewBox="0 0 14 14" fill="none" xmlns="http://www.w3.org/2000/svg">
<path d="M13.7083 10.5H12.5417C12.3667 8.51667 10.7333 7 8.75 7H7.29167V3.5H8.45833C8.63333 3.5 8.75 3.38333 8.75 3.20833V0.291667C8.75 0.116667 8.63333 0 8.45833 0H5.54167C5.36667 0 5.25 0.116667 5.25 0.291667V3.20833C5.25 3.38333 5.36667 3.5 5.54167 3.5H6.70833V7H5.25C3.26667 7 1.63333 8.51667 1.45833 10.5H0.291667C0.116667 10.5 0 10.6167 0 10.7917V13.7083C0 13.8833 0.116667 14 0.291667 14H3.20833C3.38333 14 3.5 13.8833 3.5 13.7083V10.7917C3.5 10.6167 3.38333 10.5 3.20833 10.5H2.04167C2.21667 8.86667 3.55833 7.58333 5.25 7.58333H6.70833V10.5H5.54167C5.36667 10.5 5.25 10.6167 5.25 10.7917V13.7083C5.25 13.8833 5.36667 14 5.54167 14H8.45833C8.63333 14 8.75 13.8833 8.75 13.7083V10.7917C8.75 10.6167 8.63333 10.5 8.45833 10.5H7.29167V7.58333H8.75C10.4417 7.58333 11.7833 8.86667 11.9583 10.5H10.7917C10.6167 10.5 10.5 10.6167 10.5 10.7917V13.7083C10.5 13.8833 10.6167 14 10.7917 14H13.7083C13.8833 14 14 13.8833 14 13.7083V10.7917C14 10.6167 13.8833 10.5 13.7083 10.5Z" fill="currentColor"/>
</svg>
