<svg width="14" height="14" viewBox="0 0 14 14" fill="none" xmlns="http://www.w3.org/2000/svg">
<path d="M14 0.466667C14 0.466667 14 0.408333 14 0.466667C14 0.408333 14 0.35 13.9417 0.35V0.291667V0.233333C13.9417 0.175 13.8833 0.175 13.8833 0.116667C13.8833 0.116667 13.825 0.0583333 13.7667 0.0583333H13.7083C13.7083 0.0583333 13.65 0.0583333 13.65 0H13.5917H13.5333C13.475 0 13.475 0 13.4167 0H9.91667C9.56667 0 9.33333 0.233333 9.33333 0.583333C9.33333 0.933333 9.56667 1.16667 9.91667 1.16667H12.0167L0.175 13.0083C-0.0583333 13.2417 -0.0583333 13.5917 0.175 13.825C0.291667 13.9417 0.408333 14 0.583333 14C0.758333 14 0.875 13.9417 0.991667 13.825L12.8333 1.98333V4.08333C12.8333 4.43333 13.0667 4.66667 13.4167 4.66667C13.7667 4.66667 14 4.43333 14 4.08333V0.583333C14 0.525 14 0.525 14 0.466667Z" fill="currentColor"/>
<path d="M2.91663 5.54169C4.36637 5.54169 5.54163 4.36643 5.54163 2.91669C5.54163 1.46694 4.36637 0.291687 2.91663 0.291687C1.46688 0.291687 0.291626 1.46694 0.291626 2.91669C0.291626 4.36643 1.46688 5.54169 2.91663 5.54169Z" fill="currentColor"/>
<path d="M11.0834 13.7083C12.5331 13.7083 13.7084 12.5331 13.7084 11.0833C13.7084 9.63357 12.5331 8.45831 11.0834 8.45831C9.63363 8.45831 8.45837 9.63357 8.45837 11.0833C8.45837 12.5331 9.63363 13.7083 11.0834 13.7083Z" fill="currentColor"/>
</svg>
