<?xml version="1.0" encoding="UTF-8"?>
<svg width="10px" height="10px" viewBox="0 0 10 10" version="1.1" xmlns="http://www.w3.org/2000/svg" xmlns:xlink="http://www.w3.org/1999/xlink">
    <!-- Generator: Sketch 61.2 (89653) - https://sketch.com -->
    <title>arrow-right</title>
    <desc>Created with Sketch.</desc>
    <g id="Page-1" stroke="none" stroke-width="1" fill="none" fill-rule="evenodd">
        <g id="arrow-right" fill-rule="nonzero">
            <path d="M9.19922,7.15234 L9.20703,1.45703 C9.20703,1.06641 8.94922,0.792969 8.54297,0.792969 L2.83984,0.808594 C2.45703,0.808594 2.19922,1.09766 2.19922,1.43359 C2.19922,1.76172 2.48828,2.04297 2.81641,2.04297 L4.33203,2.04297 L7.34766,1.91797 L6.19922,2.90234 L0.988281,8.12891 C0.863281,8.25391 0.792969,8.41016 0.792969,8.55859 C0.792969,8.89453 1.08984,9.20703 1.43359,9.20703 C1.59766,9.20703 1.74609,9.14453 1.87109,9.01953 L7.09766,3.80078 L8.08984,2.64453 L7.95703,5.63672 L7.95703,7.18359 C7.95703,7.51172 8.23828,7.80859 8.57422,7.80859 C8.91016,7.80859 9.19922,7.52734 9.19922,7.15234 Z" id="Path" fill="#000000"></path>
            <path d="M9.19922,7.15234 L9.20703,1.45703 C9.20703,1.06641 8.94922,0.792969 8.54297,0.792969 L2.83984,0.808594 C2.45703,0.808594 2.19922,1.09766 2.19922,1.43359 C2.19922,1.76172 2.48828,2.04297 2.81641,2.04297 L4.33203,2.04297 L7.34766,1.91797 L6.19922,2.90234 L0.988281,8.12891 C0.863281,8.25391 0.792969,8.41016 0.792969,8.55859 C0.792969,8.89453 1.08984,9.20703 1.43359,9.20703 C1.59766,9.20703 1.74609,9.14453 1.87109,9.01953 L7.09766,3.80078 L8.08984,2.64453 L7.95703,5.63672 L7.95703,7.18359 C7.95703,7.51172 8.23828,7.80859 8.57422,7.80859 C8.91016,7.80859 9.19922,7.52734 9.19922,7.15234 Z" id="Path" fill-opacity="0.1" fill="#FFFFFF"></path>
        </g>
    </g>
</svg>