<svg width="137px" height="38px" viewBox="0 0 137 38" version="1.1" xmlns="http://www.w3.org/2000/svg" xmlns:xlink="http://www.w3.org/1999/xlink">
    <title>Livepeer</title>
    <g id="Page-1" stroke="none" stroke-width="1" fill="none" fill-rule="evenodd">
        <g id="logo" fill="currentColor">
            <path d="M48.196,7.763 C50.979,7.763 53.163,8.794 54.8,10.423 C56.547,12.323 57.584,15.091 57.53,17.969 L57.475,20.14 L42.246,20.14 C42.246,22.094 43.01,24.211 44.32,25.514 C45.303,26.491 46.613,27.034 48.25,27.034 C49.942,27.034 51.361,26.546 52.235,25.623 C52.835,25.026 53.217,24.429 53.49,23.289 L57.038,23.289 C56.71,25.406 55.455,27.36 53.708,28.554 C52.18,29.586 50.27,30.183 48.25,30.183 C45.194,30.183 42.737,28.934 41.1,26.98 C39.299,24.917 38.425,22.094 38.425,19.054 C38.425,16.503 38.862,14.223 40.063,12.214 C41.591,9.663 44.484,7.763 48.196,7.763 L48.196,7.763 Z M42.3,17.1 L53.762,17.1 C53.762,15.526 53.325,13.897 52.452,12.757 C51.524,11.563 50.105,10.803 48.195,10.803 C44.319,10.803 42.409,13.951 42.3,17.1 Z M69.864,7.817 C72.484,7.817 74.558,8.686 75.868,10.097 C77.942,12.16 78.978,15.417 78.978,18.946 C78.978,22.637 77.887,26.003 75.704,28.066 C74.284,29.369 72.32,30.237 69.809,30.237 C67.517,30.237 64.733,29.151 63.587,27.197 L63.587,38 L59.984,38 L59.984,8.36 L62.768,8.36 L63.423,11.129 C64.678,9.011 67.462,7.817 69.863,7.817 L69.864,7.817 Z M69.264,27.251 C74.066,27.251 75.322,22.963 75.322,19.054 C75.322,15.146 74.066,10.857 69.263,10.857 C67.68,10.857 66.643,11.509 65.77,12.269 C63.969,13.789 63.368,16.394 63.368,19.054 C63.368,21.714 63.968,24.266 65.77,25.84 C66.643,26.6 67.68,27.251 69.263,27.251 L69.264,27.251 Z M91.314,7.763 C94.098,7.763 96.281,8.794 97.919,10.423 C99.665,12.323 100.702,15.091 100.648,17.969 L100.593,20.14 L85.366,20.14 C85.366,22.094 86.13,24.211 87.44,25.514 C88.422,26.491 89.732,27.034 91.37,27.034 C93.062,27.034 94.48,26.546 95.354,25.623 C95.954,25.026 96.337,24.429 96.61,23.289 L100.157,23.289 C99.83,25.406 98.575,27.36 96.827,28.554 C95.3,29.586 93.389,30.183 91.37,30.183 C88.313,30.183 85.857,28.934 84.22,26.98 C82.418,24.917 81.545,22.094 81.545,19.054 C81.545,16.503 81.982,14.223 83.182,12.214 C84.711,9.663 87.604,7.763 91.315,7.763 L91.314,7.763 Z M85.42,17.1 L96.882,17.1 C96.882,15.526 96.446,13.897 95.572,12.757 C94.645,11.563 93.225,10.803 91.315,10.803 C87.44,10.803 85.529,13.951 85.42,17.1 Z M112.875,7.763 C115.659,7.763 117.842,8.794 119.479,10.423 C121.226,12.323 122.263,15.091 122.209,17.969 L122.154,20.14 L106.925,20.14 C106.925,22.094 107.69,24.211 109,25.514 C109.982,26.491 111.292,27.034 112.93,27.034 C114.622,27.034 116.04,26.546 116.914,25.623 C117.514,25.026 117.896,24.429 118.169,23.289 L121.717,23.289 C121.39,25.406 120.134,27.36 118.387,28.554 C116.859,29.586 114.949,30.183 112.929,30.183 C109.873,30.183 107.417,28.934 105.779,26.98 C103.979,24.917 103.105,22.094 103.105,19.054 C103.105,16.503 103.541,14.223 104.742,12.214 C106.271,9.663 109.163,7.763 112.875,7.763 L112.875,7.763 Z M106.98,17.1 L118.442,17.1 C118.442,15.526 118.006,13.897 117.132,12.757 C116.204,11.563 114.785,10.803 112.875,10.803 C109,10.803 107.089,13.951 106.98,17.1 Z M136.509,11.074 L128.267,14.549 L128.267,29.694 L124.665,29.694 L124.665,8.36 L127.448,8.36 L128.103,11.129 L135.69,8.469 L136.509,11.074 L136.509,11.074 Z M24.016,25.786 L28,25.786 L28,29.749 L24.016,29.749 L24.016,25.786 Z M24.016,8.306 L28,8.306 L28,12.269 L24.016,12.269 L24.016,8.306 L24.016,8.306 Z M33.404,8.306 L37.388,8.306 L37.388,12.269 L33.404,12.269 L33.404,8.306 L33.404,8.306 Z M14.682,8.306 L18.667,8.306 L18.667,12.269 L14.682,12.269 L14.682,8.306 L14.682,8.306 Z M28.71,17.046 L32.694,17.046 L32.694,21.009 L28.71,21.009 L28.71,17.046 L28.71,17.046 Z M19.322,17.046 L23.306,17.046 L23.306,21.009 L19.322,21.009 L19.322,17.046 Z M7.259,0 L11.244,0 L11.244,3.963 L7.259,3.963 L7.259,0 Z M0,0 L3.602,0 L3.602,29.64 L0,29.64 L0,0 Z M7.423,8.306 L11.025,8.306 L11.025,29.694 L7.423,29.694 L7.423,8.306 Z" id="Shape"></path>
        </g>
    </g>
</svg>