<svg width="27" height="27" viewBox="0 0 27 27" fill="none" xmlns="http://www.w3.org/2000/svg">
<path d="M24.9916 15.5083C19.7701 15.5083 15.5305 19.7479 15.5305 24.9694C15.5305 26.0851 14.6156 27 13.4999 27C12.3842 27 11.4693 26.0851 11.4693 24.9694C11.4693 19.7479 7.22963 15.5083 2.00815 15.5083C0.892446 15.5083 -0.0224304 14.5934 -0.0224304 13.4777C-0.0224304 12.362 0.892446 11.4471 2.00815 11.4471C7.22963 11.4471 11.4693 7.20744 11.4693 1.98595C11.4693 0.870249 12.3842 -0.0446262 13.4999 -0.0446262C14.6156 -0.0446262 15.5305 0.870249 15.5305 1.98595C15.5305 7.20744 19.7701 11.4471 24.9916 11.4471C26.1073 11.4471 27.0222 12.362 27.0222 13.4777C26.9999 14.6157 26.1073 15.5083 24.9916 15.5083ZM13.4999 9.10413C12.4065 10.8893 10.8891 12.3843 9.12633 13.4777C10.9115 14.5711 12.4065 16.0884 13.4999 17.8512C14.5933 16.0661 16.1106 14.5711 17.8734 13.4777C16.1106 12.3843 14.6156 10.8893 13.4999 9.10413Z" fill="#010101"/>
</svg>
