<svg width="98" height="14" viewBox="0 0 98 14" fill="none" xmlns="http://www.w3.org/2000/svg">
<path opacity="0.87" d="M5.96023 13.2898L7.42614 11.8239L4.56818 8.97727H12.2727V6.84091H4.56818L7.42614 3.98295L5.96023 2.52841L0.579545 7.90909L5.96023 13.2898ZM22.7656 6.9375C22.6179 5.21023 21.2031 4.15909 18.8395 4.15909C16.4759 4.15909 14.9702 5.1875 14.9815 6.9375C14.9702 8.27841 15.8281 9.14205 17.5724 9.46591L19.0952 9.75568C19.8168 9.89773 20.1463 10.125 20.1577 10.5114C20.1463 10.9489 19.6577 11.2386 18.9474 11.2386C18.1577 11.2386 17.6236 10.8977 17.5043 10.2614L14.7599 10.3295C14.9588 12.0568 16.4418 13.1648 18.9361 13.1648C21.2713 13.1648 22.9702 12 22.9815 10.2045C22.9702 8.93182 22.1293 8.17614 20.3906 7.84091L18.7088 7.52273C17.9702 7.375 17.7315 7.11364 17.7372 6.77841C17.7315 6.33523 18.2486 6.0625 18.8906 6.0625C19.6236 6.0625 20.1349 6.45455 20.2145 7.00568L22.7656 6.9375ZM29.2756 4.27273H27.7017V2.18182H24.9233V4.27273H23.7699V6.31818H24.9233V10.5625C24.9062 12.3295 26.054 13.2159 28.0142 13.125C28.6847 13.0909 29.1676 12.9545 29.4347 12.875L29.0142 10.8693C28.8949 10.8977 28.6165 10.9545 28.4062 10.9545C27.9574 10.9545 27.7017 10.7727 27.7017 10.2557V6.31818H29.2756V4.27273ZM30.6932 13H33.4716V8.26136C33.4716 7.22159 34.2102 6.52273 35.2045 6.52273C35.5341 6.52273 36.0284 6.57955 36.2955 6.67045V4.25568C36.0625 4.19318 35.7727 4.15341 35.517 4.15341C34.5625 4.15341 33.8011 4.71023 33.483 5.86364H33.392V4.27273H30.6932V13ZM41.054 13.1648C43.3438 13.1648 44.8494 12.0568 45.1676 10.3409L42.6165 10.267C42.4006 10.8466 41.8324 11.1591 41.1051 11.1591C40.0369 11.1591 39.3778 10.4489 39.3778 9.38068V9.30682H45.196V8.61364C45.196 5.73864 43.446 4.15909 40.9688 4.15909C38.3324 4.15909 36.6392 5.96591 36.6392 8.67045C36.6392 11.4659 38.3097 13.1648 41.054 13.1648ZM39.3778 7.69318C39.4176 6.82386 40.1051 6.16477 41.0256 6.16477C41.9403 6.16477 42.5994 6.80114 42.6108 7.69318H39.3778ZM49.0753 13.1477C50.2912 13.1477 51.1321 12.6761 51.6094 11.7841H51.6776V13H54.2912V7.06818C54.2912 5.22159 52.6491 4.15909 50.4276 4.15909C48.081 4.15909 46.7514 5.34091 46.5298 6.93182L49.0923 7.02273C49.2116 6.46591 49.6719 6.125 50.4048 6.125C51.0866 6.125 51.5185 6.45455 51.5185 7.03977V7.06818C51.5185 7.60227 50.9389 7.71591 49.4503 7.84659C47.6832 7.99432 46.206 8.64773 46.206 10.5795C46.206 12.3068 47.4048 13.1477 49.0753 13.1477ZM49.9332 11.3295C49.2912 11.3295 48.8366 11.0227 48.8366 10.4432C48.8366 9.88068 49.2798 9.53977 50.0696 9.42045C50.5866 9.34659 51.223 9.23295 51.5355 9.06818V9.89773C51.5355 10.75 50.8196 11.3295 49.9332 11.3295ZM55.9901 13H58.7685V7.83523C58.7685 6.97159 59.2741 6.42045 60.0014 6.42045C60.723 6.42045 61.2003 6.92614 61.2003 7.73295V13H63.8707V7.78977C63.8707 6.95455 64.331 6.42045 65.098 6.42045C65.8026 6.42045 66.3026 6.89205 66.3026 7.76136V13H69.081V7.125C69.081 5.27841 67.9446 4.15909 66.2969 4.15909C65.0071 4.15909 63.9901 4.83523 63.6662 5.875H63.5753C63.3423 4.82955 62.4048 4.15909 61.1946 4.15909C60.0014 4.15909 59.0923 4.8125 58.7287 5.875H58.6321V4.27273H55.9901V13ZM77.0185 1.36364H74.2401V13H77.0185V1.36364ZM78.7869 13H81.5653V4.27273H78.7869V13ZM80.179 3.25568C80.9688 3.25568 81.6051 2.65909 81.6051 1.92614C81.6051 1.19318 80.9688 0.602272 80.179 0.602272C79.3949 0.602272 78.7528 1.19318 78.7528 1.92614C78.7528 2.65909 79.3949 3.25568 80.179 3.25568ZM90.9531 6.9375C90.8054 5.21023 89.3906 4.15909 87.027 4.15909C84.6634 4.15909 83.1577 5.1875 83.169 6.9375C83.1577 8.27841 84.0156 9.14205 85.7599 9.46591L87.2827 9.75568C88.0043 9.89773 88.3338 10.125 88.3452 10.5114C88.3338 10.9489 87.8452 11.2386 87.1349 11.2386C86.3452 11.2386 85.8111 10.8977 85.6918 10.2614L82.9474 10.3295C83.1463 12.0568 84.6293 13.1648 87.1236 13.1648C89.4588 13.1648 91.1577 12 91.169 10.2045C91.1577 8.93182 90.3168 8.17614 88.5781 7.84091L86.8963 7.52273C86.1577 7.375 85.919 7.11364 85.9247 6.77841C85.919 6.33523 86.4361 6.0625 87.0781 6.0625C87.8111 6.0625 88.3224 6.45455 88.402 7.00568L90.9531 6.9375ZM97.4631 4.27273H95.8892V2.18182H93.1108V4.27273H91.9574V6.31818H93.1108V10.5625C93.0938 12.3295 94.2415 13.2159 96.2017 13.125C96.8722 13.0909 97.3551 12.9545 97.6222 12.875L97.2017 10.8693C97.0824 10.8977 96.804 10.9545 96.5938 10.9545C96.1449 10.9545 95.8892 10.7727 95.8892 10.2557V6.31818H97.4631V4.27273Z" fill="black"/>
</svg>
