<svg width="14" height="14" viewBox="0 0 14 14" fill="none" xmlns="http://www.w3.org/2000/svg">
<path d="M7 0C3.15 0 0 3.15 0 7C0 8.86667 0.7 10.6167 2.04167 11.9C3.325 13.2417 5.13333 14 7 14C8.86667 14 10.675 13.2417 11.9583 11.9C13.2417 10.5583 14 8.80833 14 7C14 3.15 10.85 0 7 0ZM11.725 11.3167C11.0833 10.9667 10.2083 10.6167 9.21667 10.2667C8.98333 10.15 8.75 10.0917 8.45833 9.975V8.925C8.75 8.75 9.275 8.28333 9.33333 7.23333C9.56667 7.11667 9.68333 6.825 9.68333 6.41667C9.68333 6.06667 9.56667 5.83333 9.39167 5.65833C9.50833 5.19167 9.8 4.43333 9.625 3.73333C9.45 2.91667 8.34167 2.625 7.46667 2.625C6.70833 2.625 5.71667 2.85833 5.36667 3.5C4.95833 3.5 4.725 3.675 4.60833 3.79167C4.25833 4.25833 4.49167 5.19167 4.60833 5.65833C4.43333 5.775 4.31667 6.06667 4.31667 6.41667C4.31667 6.76667 4.43333 7.05833 4.66667 7.23333C4.725 8.28333 5.25 8.75 5.54167 8.925V9.975C5.30833 10.0333 5.075 10.15 4.84167 10.2083C3.90833 10.5583 2.91667 10.9083 2.275 11.3167C1.16667 10.15 0.583333 8.63333 0.583333 7C0.583333 3.44167 3.44167 0.583333 7 0.583333C10.5583 0.583333 13.4167 3.44167 13.4167 7C13.4167 8.63333 12.8333 10.15 11.725 11.3167Z" fill="currentColor"/>
</svg>
