<?xml version="1.0" encoding="UTF-8"?>
<svg width="18px" height="13px" viewBox="0 0 18 13" version="1.1" xmlns="http://www.w3.org/2000/svg" xmlns:xlink="http://www.w3.org/1999/xlink">
    <!-- Generator: Sketch 52.5 (67469) - http://www.bohemiancoding.com/sketch -->
    <title>Icon</title>
    <desc>Created with Sketch.</desc>
    <g id="Page-1" stroke="none" stroke-width="1" fill="none" fill-rule="evenodd">
        <g id="Desktop" transform="translate(-956.000000, -118.000000)" fill="#FFFFFF">
            <g id="search" transform="translate(718.000000, 115.000000)">
                <path d="M253.880833,8.5862069 L249.35421,4.05958352 C249.111815,3.81718913 249.111815,3.42419018 249.35421,3.18179579 C249.596604,2.9394014 249.989603,2.9394014 250.231997,3.18179579 L255.549991,8.49978977 C255.940516,8.89031406 255.940516,9.52347904 255.549991,9.91400333 L250.231997,15.2319973 C249.989603,15.4743917 249.596604,15.4743917 249.35421,15.2319973 C249.111815,14.9896029 249.111815,14.596604 249.35421,14.3542096 L253.880833,9.82758621 L243.586207,9.82758621 C243.243409,9.82758621 242.965517,9.54969398 242.965517,9.20689655 C242.965517,8.86409912 243.243409,8.5862069 243.586207,8.5862069 L253.880833,8.5862069 Z M238,9.20689655 C238,8.86409912 238.277892,8.5862069 238.62069,8.5862069 L239.862069,8.5862069 C240.204866,8.5862069 240.482759,8.86409912 240.482759,9.20689655 C240.482759,9.54969398 240.204866,9.82758621 239.862069,9.82758621 L238.62069,9.82758621 C238.277892,9.82758621 238,9.54969398 238,9.20689655 Z" id="Icon"></path>
            </g>
        </g>
    </g>
</svg>