<?xml version="1.0" encoding="UTF-8"?>
<svg width="36px" height="38px" viewBox="0 0 36 38" version="1.1" xmlns="http://www.w3.org/2000/svg" xmlns:xlink="http://www.w3.org/1999/xlink">
    <!-- Generator: Sketch 61.2 (89653) - https://sketch.com -->
    <title>fortmatic</title>
    <desc>Created with Sketch.</desc>
    <g id="Page-1" stroke="none" stroke-width="1" fill="none" fill-rule="evenodd">
        <g id="fortmatic" fill="#6851FF">
            <path d="M17.9399,0.896484 L26.9099,0.896484 L35.8799,0.896484 L35.8799,10.0963 L26.9099,10.0963 L17.9399,10.0963 L8.96996,10.0963 L8.96996,19.2961 L8.96996,19.886 L8.96996,28.4424 L8.96996,28.496 L8.96996,37.6422 L0,37.6422 L0,28.496 L0,28.4424 L0,19.886 L0,19.2961 L0,10.0963 L0,0.896484 L8.96996,0.896484 L17.9399,0.896484 Z M26.9105,28.4452 L17.9928,28.4452 L17.9928,19.299 L35.8752,19.299 L35.8752,28.767 C35.8752,31.1207 34.9639,33.378 33.3417,35.0428 C31.7195,36.7076 29.5191,37.6436 27.2242,37.6451 L26.9105,37.6451 L26.9105,28.4452 Z" id="Shape"></path>
        </g>
    </g>
</svg>