<?xml version="1.0" encoding="UTF-8"?>
<svg width="14px" height="14px" viewBox="0 0 14 14" version="1.1" xmlns="http://www.w3.org/2000/svg" xmlns:xlink="http://www.w3.org/1999/xlink">
    <desc>Created with Sketch.</desc>
    <g id="Page-1" stroke="none" stroke-width="1" fill="none" fill-rule="evenodd" fill-opacity="0.87">
        <g id="help" fill="currentColor" fill-rule="nonzero">
            <path d="M6.99992,0.33333 C3.31992,0.33333 0.33325,3.32 0.33325,7 C0.33325,10.68 3.31992,13.6667 6.99992,13.6667 C10.6799,13.6667 13.6666,10.68 13.6666,7 C13.6666,3.32 10.6799,0.33333 6.99992,0.33333 Z M7.66659,11.6667 L6.33325,11.6667 L6.33325,10.3333 L7.66659,10.3333 L7.66659,11.6667 Z M9.0466,6.5 L8.44659,7.11333 C7.96659,7.6 7.66659,8 7.66659,9 L6.33325,9 L6.33325,8.66666 C6.33325,7.93333 6.63325,7.26666 7.11325,6.78 L7.93992,5.94 C8.18659,5.7 8.33325,5.36666 8.33325,5 C8.33325,4.26666 7.73325,3.66666 6.99992,3.66666 C6.26659,3.66666 5.66659,4.26666 5.66659,5 L4.33325,5 C4.33325,3.52666 5.52659,2.33333 6.99992,2.33333 C8.47325,2.33333 9.6666,3.52666 9.6666,5 C9.6666,5.58666 9.4266,6.12 9.0466,6.5 Z" id="Shape"></path>
        </g>
    </g>
</svg>