<?xml version="1.0" encoding="UTF-8"?>
<svg width="137px" height="38px" viewBox="0 0 137 38" version="1.1" xmlns="http://www.w3.org/2000/svg" xmlns:xlink="http://www.w3.org/1999/xlink">
    <g id="Home-V3" stroke="none" stroke-width="1" fill="none" fill-rule="evenodd">
        <g id="Desktop" transform="translate(-192.000000, -40.000000)" fill="#ffffff">
            <g id="Masthead">
                <g id="Logo" transform="translate(192.000000, 40.000000)">
                    <g id="logo">
                        <path d="M48.1956175,7.76285714 C50.9792829,7.76285714 53.1625498,8.79428571 54.8,10.4228571 C56.5466135,12.3228571 57.5836653,15.0914286 57.5290837,17.9685714 L57.474502,20.14 L42.2462151,20.14 C42.2462151,22.0942857 43.0103586,24.2114286 44.3203187,25.5142857 C45.3027888,26.4914286 46.612749,27.0342857 48.2501992,27.0342857 C49.9422311,27.0342857 51.3613546,26.5457143 52.2346614,25.6228571 C52.8350598,25.0257143 53.2171315,24.4285714 53.4900398,23.2885714 L57.0378486,23.2885714 C56.7103586,25.4057143 55.4549801,27.36 53.7083665,28.5542857 C52.1800797,29.5857143 50.2697211,30.1828571 48.2501992,30.1828571 C45.1936255,30.1828571 42.7374502,28.9342857 41.1,26.98 C39.2988048,24.9171429 38.425498,22.0942857 38.425498,19.0542857 C38.425498,16.5028571 38.8621514,14.2228571 40.0629482,12.2142857 C41.5912351,9.66285714 44.4840637,7.76285714 48.1956175,7.76285714 Z M42.3007968,17.1 L53.7629482,17.1 C53.7629482,15.5257143 53.3262948,13.8971429 52.452988,12.7571429 C51.5250996,11.5628571 50.1059761,10.8028571 48.1956175,10.8028571 C44.3203187,10.8028571 42.4099602,13.9514286 42.3007968,17.1 Z M69.8645418,7.81714286 C72.4844622,7.81714286 74.5585657,8.68571429 75.8685259,10.0971429 C77.9426295,12.16 78.9796813,15.4171429 78.9796813,18.9457143 C78.9796813,22.6371429 77.8880478,26.0028571 75.7047809,28.0657143 C74.2856574,29.3685714 72.3207171,30.2371429 69.8099602,30.2371429 C67.5175299,30.2371429 64.7338645,29.1514286 63.5876494,27.1971429 L63.5876494,38 L59.985259,38 L59.985259,8.36 L62.7689243,8.36 L63.4239044,11.1285714 C64.6792829,9.01142857 67.4629482,7.81714286 69.8645418,7.81714286 Z M69.2641434,27.2514286 C74.0673307,27.2514286 75.3227092,22.9628571 75.3227092,19.0542857 C75.3227092,15.1457143 74.0673307,10.8571429 69.2641434,10.8571429 C67.6812749,10.8571429 66.6442231,11.5085714 65.7709163,12.2685714 C63.9697211,13.7885714 63.3693227,16.3942857 63.3693227,19.0542857 C63.3693227,21.7142857 63.9697211,24.2657143 65.7709163,25.84 C66.6442231,26.6 67.6812749,27.2514286 69.2641434,27.2514286 Z M91.3151394,7.76285714 C94.0988048,7.76285714 96.2820717,8.79428571 97.9195219,10.4228571 C99.6661355,12.3228571 100.703187,15.0914286 100.648606,17.9685714 L100.594024,20.14 L85.3657371,20.14 C85.3657371,22.0942857 86.1298805,24.2114286 87.4398406,25.5142857 C88.4223108,26.4914286 89.7322709,27.0342857 91.3697211,27.0342857 C93.061753,27.0342857 94.4808765,26.5457143 95.3541833,25.6228571 C95.9545817,25.0257143 96.3366534,24.4285714 96.6095618,23.2885714 L100.157371,23.2885714 C99.8298805,25.4057143 98.574502,27.36 96.8278884,28.5542857 C95.2996016,29.5857143 93.389243,30.1828571 91.3697211,30.1828571 C88.3131474,30.1828571 85.8569721,28.9342857 84.2195219,26.98 C82.4183267,24.9171429 81.5450199,22.0942857 81.5450199,19.0542857 C81.5450199,16.5028571 81.9816733,14.2228571 83.1824701,12.2142857 C84.710757,9.66285714 87.6035857,7.76285714 91.3151394,7.76285714 Z M85.4203187,17.1 L96.8824701,17.1 C96.8824701,15.5257143 96.4458167,13.8971429 95.57251,12.7571429 C94.6446215,11.5628571 93.225498,10.8028571 91.3151394,10.8028571 C87.4398406,10.8028571 85.5294821,13.9514286 85.4203187,17.1 Z M112.8749,7.76285714 C115.658566,7.76285714 117.841833,8.79428571 119.479283,10.4228571 C121.225896,12.3228571 122.262948,15.0914286 122.208367,17.9685714 L122.153785,20.14 L106.925498,20.14 C106.925498,22.0942857 107.689641,24.2114286 108.999602,25.5142857 C109.982072,26.4914286 111.292032,27.0342857 112.929482,27.0342857 C114.621514,27.0342857 116.040637,26.5457143 116.913944,25.6228571 C117.514343,25.0257143 117.896414,24.4285714 118.169323,23.2885714 L121.717131,23.2885714 C121.389641,25.4057143 120.134263,27.36 118.387649,28.5542857 C116.859363,29.5857143 114.949004,30.1828571 112.929482,30.1828571 C109.872908,30.1828571 107.416733,28.9342857 105.779283,26.98 C103.978088,24.9171429 103.104781,22.0942857 103.104781,19.0542857 C103.104781,16.5028571 103.541434,14.2228571 104.742231,12.2142857 C106.270518,9.66285714 109.163347,7.76285714 112.8749,7.76285714 Z M106.98008,17.1 L118.442231,17.1 C118.442231,15.5257143 118.005578,13.8971429 117.132271,12.7571429 C116.204382,11.5628571 114.785259,10.8028571 112.8749,10.8028571 C108.999602,10.8028571 107.089243,13.9514286 106.98008,17.1 Z M136.508765,11.0742857 L128.266932,14.5485714 L128.266932,29.6942857 L124.664542,29.6942857 L124.664542,8.36 L127.448207,8.36 L128.103187,11.1285714 L135.69004,8.46857143 L136.508765,11.0742857 Z M24.0159363,25.7857143 L28.0003984,25.7857143 L28.0003984,29.7485714 L24.0159363,29.7485714 L24.0159363,25.7857143 Z M24.0159363,8.30571429 L28.0003984,8.30571429 L28.0003984,12.2685714 L24.0159363,12.2685714 L24.0159363,8.30571429 Z M33.4039841,8.30571429 L37.3884462,8.30571429 L37.3884462,12.2685714 L33.4039841,12.2685714 L33.4039841,8.30571429 Z M14.6824701,8.30571429 L18.6669323,8.30571429 L18.6669323,12.2685714 L14.6824701,12.2685714 L14.6824701,8.30571429 Z M28.7099602,17.0457143 L32.6944223,17.0457143 L32.6944223,21.0085714 L28.7099602,21.0085714 L28.7099602,17.0457143 Z M19.3219124,17.0457143 L23.3063745,17.0457143 L23.3063745,21.0085714 L19.3219124,21.0085714 L19.3219124,17.0457143 Z M7.25936255,5.77315973e-15 L11.2438247,5.77315973e-15 L11.2438247,3.96285714 L7.25936255,3.96285714 L7.25936255,5.77315973e-15 Z M-4.52970994e-14,1.0658141e-14 L3.60239044,1.0658141e-14 L3.60239044,29.64 L-4.52970994e-14,29.64 L-4.52970994e-14,1.0658141e-14 Z M7.42310757,8.30571429 L11.025498,8.30571429 L11.025498,29.6942857 L7.42310757,29.6942857 L7.42310757,8.30571429 Z"></path>
                    </g>
                </g>
            </g>
        </g>
    </g>
</svg>