<?xml version="1.0" encoding="UTF-8"?>
<svg width="29px" height="30px" viewBox="0 0 29 30" version="1.1" xmlns="http://www.w3.org/2000/svg" xmlns:xlink="http://www.w3.org/1999/xlink">
    <title>Livepeer</title>
    <g id="Page-1" stroke="none" stroke-width="1" fill="none" fill-rule="evenodd">
        <g id="logo-mark" fill="currentColor">
            <path d="M0.0714111,5.35714 L0.0714111,0 L5.42855,0 L5.42855,5.35714 L0.0714111,5.35714 Z M0.0714111,12.1429 L0.0714111,17.5 L5.42855,17.5 L5.42855,12.1429 L0.0714111,12.1429 Z M22.9286,12.1429 L22.9286,17.5 L28.2857,17.5 L28.2857,12.1429 L22.9286,12.1429 Z M0.0714111,24.6429 L0.0714111,30 L5.42855,30 L5.42855,24.6429 L0.0714111,24.6429 Z M11.5,11.4286 L11.5,6.07143 L16.8571,6.07143 L16.8571,11.4286 L11.5,11.4286 Z M11.5,18.5714 L11.5,23.9286 L16.8571,23.9286 L16.8571,18.5714 L11.5,18.5714 Z" id="Shape"></path>
        </g>
    </g>
</svg>