<svg width="18" height="17" viewBox="0 0 18 17" fill="none" xmlns="http://www.w3.org/2000/svg">
<path fill-rule="evenodd" clip-rule="evenodd" d="M0.911 0L0 2.68L0.596 5.523L0.21 5.822L0.77 6.255L0.344 6.585L0.911 7.095L0.551 7.337L1.375 8.287L0.155 12.137L1.303 16.01L5.423 14.935L7.61 16.639H10.347L12.73 14.893L16.697 16.01L17.846 12.136H17.851L16.625 8.287L17.448 7.337L17.088 7.096L17.656 6.586L17.23 6.256L17.79 5.822L17.404 5.522L18 2.68L17.088 0L11.35 2.107H6.651L0.911 0ZM11.195 9.451L13.539 10.554L10.259 11.499L11.195 9.451ZM4.461 10.551L6.806 9.451L7.742 11.499L4.461 10.551ZM7.612 13.699L8.019 13.465H9.98L10.363 13.711L10.492 15.141H7.478L7.612 13.699Z" fill="currentColor"/>
</svg>
