<?xml version="1.0" encoding="UTF-8"?>
<svg width="52px" height="52px" viewBox="0 0 52 52" version="1.1" xmlns="http://www.w3.org/2000/svg" xmlns:xlink="http://www.w3.org/1999/xlink">
    <!-- Generator: Sketch 58 (84663) - https://sketch.com -->
    <title>new</title>
    <desc>Created with Sketch.</desc>
    <g id="Page-1" stroke="none" stroke-width="1" fill="none" fill-rule="evenodd">
        <g id="new" transform="translate(1.000000, 1.000000)">
            <path d="M11.183,43.082 C9.622,43.353 8.223,43.396 7.414,42.586 C5.398,40.571 8.668,34.896 7.56,32.223 C6.491,29.644 0.129,27.966 0.129,25 C0.129,22.034 6.49,20.356 7.56,17.777 C8.668,15.104 5.4,9.427 7.414,7.414 C9.429,5.398 15.104,8.668 17.777,7.56 C20.356,6.491 22.034,0.129 25,0.129 C27.966,0.129 29.644,6.49 32.223,7.56 C34.896,8.669 40.573,5.4 42.586,7.414 C43.432,8.26 43.347,9.751 43.045,11.393" id="Path" stroke="currentColor" stroke-width="2" stroke-linecap="round" stroke-linejoin="round"></path>
            <path d="M42.363,14.748 C42.17,15.907 42.108,16.977 42.44,17.777 C43.509,20.356 49.871,22.034 49.871,25 C49.871,27.966 43.51,29.644 42.44,32.223 C41.331,34.896 44.6,40.573 42.586,42.586 C40.571,44.602 34.896,41.332 32.223,42.44 C29.644,43.509 27.966,49.871 25,49.871 C22.034,49.871 20.356,43.51 17.777,42.44 C17.006,42.12 15.983,42.165 14.87,42.341" id="Path" stroke="currentColor" stroke-width="2" stroke-linecap="round" stroke-linejoin="round"></path>
            <g id="Group" transform="translate(14.000000, 21.000000)" fill="currentColor" fill-rule="nonzero">
                <path d="M1.134,6.76 C1.134,7.061 0.884,7.311 0.594,7.311 C0.284,7.311 0.045,7.061 0.045,6.76 L0.045,0.953 C0.045,0.953 0.045,0.953 0.045,0.943 C0.034,0.773 0.114,0.593 0.265,0.484 C0.515,0.314 0.855,0.363 1.025,0.603 L4.253,5.072 L4.253,0.953 C4.253,0.664 4.493,0.414 4.793,0.414 C5.093,0.414 5.343,0.664 5.343,0.953 L5.343,6.76 C5.343,7.061 5.093,7.311 4.793,7.311 C4.633,7.311 4.483,7.231 4.383,7.11 C4.363,7.09 4.343,7.071 4.333,7.051 L1.135,2.613 L1.135,6.76 L1.134,6.76 Z" id="Path"></path>
                <path d="M7.095,6.76 L7.095,0.864 C7.095,0.555 7.335,0.315 7.645,0.315 L7.655,0.315 C7.655,0.315 7.655,0.315 7.676,0.315 L10.914,0.315 C11.204,0.315 11.464,0.555 11.464,0.864 C11.464,1.175 11.204,1.425 10.914,1.425 L8.205,1.425 L8.205,3.253 L10.534,3.253 C10.834,3.253 11.084,3.513 11.084,3.804 C11.084,4.113 10.834,4.363 10.534,4.363 L8.205,4.363 L8.205,6.203 L10.914,6.203 C11.204,6.203 11.464,6.453 11.464,6.762 C11.464,7.063 11.204,7.313 10.914,7.313 L7.676,7.313 C7.655,7.313 7.655,7.303 7.655,7.303 L7.645,7.313 C7.335,7.311 7.095,7.061 7.095,6.76 Z" id="Path"></path>
                <path d="M22.239,1.143 L19.791,6.971 C19.781,7 19.761,7.041 19.741,7.061 L19.731,7.071 C19.72,7.091 19.701,7.11 19.68,7.132 C19.68,7.152 19.67,7.152 19.67,7.161 C19.65,7.171 19.62,7.19 19.601,7.212 L19.59,7.212 C19.561,7.232 19.54,7.261 19.5,7.271 L19.49,7.271 C19.49,7.271 19.48,7.271 19.48,7.281 C19.459,7.281 19.43,7.293 19.4,7.302 C19.39,7.302 19.379,7.302 19.379,7.302 C19.35,7.312 19.319,7.312 19.279,7.312 C19.249,7.312 19.219,7.312 19.189,7.302 C19.169,7.302 19.159,7.302 19.159,7.302 C19.13,7.292 19.109,7.281 19.09,7.281 C19.079,7.271 19.079,7.271 19.069,7.271 C19.029,7.261 19,7.232 18.979,7.212 C18.969,7.212 18.969,7.212 18.969,7.212 C18.939,7.191 18.919,7.171 18.899,7.161 C18.889,7.151 18.889,7.151 18.879,7.132 C18.868,7.111 18.849,7.091 18.839,7.071 C18.818,7.071 18.818,7.061 18.818,7.061 C18.798,7.041 18.789,7 18.778,6.971 L17.469,3.871 L16.159,6.971 C16.149,7 16.129,7.041 16.119,7.061 C16.109,7.061 16.109,7.071 16.109,7.071 C16.088,7.091 16.069,7.11 16.048,7.132 C16.048,7.152 16.038,7.152 16.038,7.161 C16.018,7.171 15.998,7.19 15.978,7.212 C15.957,7.212 15.957,7.212 15.957,7.212 C15.928,7.232 15.897,7.261 15.877,7.271 C15.867,7.271 15.867,7.271 15.867,7.271 C15.867,7.271 15.857,7.271 15.857,7.281 C15.817,7.281 15.797,7.293 15.777,7.302 C15.767,7.302 15.757,7.302 15.747,7.302 C15.718,7.312 15.687,7.312 15.657,7.312 C15.628,7.312 15.588,7.312 15.557,7.302 C15.547,7.302 15.536,7.302 15.527,7.302 C15.498,7.292 15.477,7.281 15.458,7.281 C15.447,7.271 15.447,7.271 15.437,7.271 C15.407,7.261 15.367,7.232 15.347,7.212 C15.337,7.212 15.337,7.212 15.337,7.212 C15.307,7.191 15.297,7.171 15.267,7.161 C15.257,7.151 15.257,7.151 15.247,7.132 C15.226,7.111 15.217,7.091 15.196,7.071 L15.196,7.061 C15.176,7.041 15.167,7 15.146,6.971 L12.688,1.143 C12.578,0.873 12.698,0.543 12.988,0.434 C13.258,0.315 13.588,0.444 13.697,0.725 L15.656,5.352 L16.945,2.284 C17.036,2.063 17.246,1.944 17.466,1.944 C17.676,1.944 17.886,2.063 17.986,2.284 L19.275,5.352 L21.224,0.725 C21.344,0.444 21.663,0.315 21.953,0.434 C22.229,0.543 22.359,0.873 22.239,1.143 Z" id="Path"></path>
            </g>
        </g>
    </g>
</svg>