<svg width="16" height="16" viewBox="0 0 16 16" fill="none" xmlns="http://www.w3.org/2000/svg">
<path d="M7.8 1.59237L9 1.01332V2.39251L7.8 2.97155V1.59237ZM7.2 2.97155L6 2.39251V1.01332L7.2 1.59237V2.97155ZM5.56582 2.83047L7.36582 3.69903C7.36846 3.7003 7.37155 3.69974 7.37422 3.70094C7.45341 3.73911 7.54658 3.73911 7.62577 3.70094C7.62844 3.69974 7.63154 3.7003 7.63417 3.69903L9.43417 2.83047C9.53582 2.78142 9.60002 2.68116 9.6 2.57148V1.01332L12.8291 2.57148L11.5658 3.18106C11.5628 3.18253 11.5611 3.18532 11.5581 3.18687C11.5529 3.18954 11.5473 3.19079 11.5422 3.19378C11.5179 3.20871 11.4959 3.22698 11.4769 3.24801C11.4723 3.25303 11.4691 3.25858 11.4648 3.26388C11.4471 3.28593 11.4328 3.31035 11.4224 3.33637C11.4198 3.34296 11.4165 3.3489 11.4144 3.35567C11.4052 3.38294 11.4004 3.41138 11.4 3.44004V4.9982L9.3 6.01152L7.63418 5.20771C7.5497 5.16699 7.4503 5.16699 7.36582 5.20771L5.7 6.01152L3.6 4.9982V3.44004C3.5996 3.41138 3.59476 3.38294 3.58563 3.35567C3.58349 3.3489 3.58023 3.34296 3.57757 3.33637C3.56716 3.31035 3.55287 3.28593 3.53516 3.26388C3.53091 3.25858 3.52769 3.25303 3.52306 3.24801C3.50413 3.22698 3.48213 3.20871 3.45776 3.19378C3.45275 3.19079 3.44705 3.18956 3.44191 3.18689C3.43892 3.18533 3.43724 3.18252 3.43418 3.18106L2.1709 2.57148L5.4 1.01332V2.57148C5.39997 2.68115 5.46417 2.78142 5.56582 2.83047ZM12 11.1466L13.2 11.7256V13.1048L12 12.5257V11.1466ZM13.5 11.2229L12.3709 10.6781L13.5 10.1332L14.6291 10.6781L13.5 11.2229ZM15 5.28772L13.8 5.86676V4.48758L15 3.90854V5.28772ZM12.0709 5.32193L13.2 4.7771V5.86676L12.0709 5.32193ZM12 4.70868V3.90854L12.8291 4.30861L12 4.70868ZM7.5 6.88009L6.3709 6.33526L7.5 5.79042L8.6291 6.33526L7.5 6.88009ZM6 6.80375L7.2 7.38279V8.76197L6 8.18293V6.80375ZM7.8 7.38279L9 6.80375V8.18293L7.8 8.76197V7.38279ZM1.8 4.7771L2.9291 5.32193L1.8 5.86676V4.7771ZM3 4.70868L2.1709 4.30861L3 3.90854V4.70868ZM1.2 5.86676L0 5.28772V3.90854L1.2 4.48758V5.86676ZM1.8 11.7256L3 11.1466V12.5257L1.8 13.1048V11.7256ZM1.5 11.2229L0.370899 10.6781L1.5 10.1332L2.6291 10.6781L1.5 11.2229ZM3.43418 12.9637C3.53583 12.9147 3.60003 12.8144 3.6 12.7047V10.6781C3.5996 10.6494 3.59476 10.621 3.58563 10.5937C3.58349 10.5869 3.58023 10.581 3.57757 10.5744C3.56716 10.5484 3.55287 10.524 3.53516 10.5019C3.53091 10.4966 3.52769 10.4911 3.52306 10.486C3.50413 10.465 3.48213 10.4467 3.45776 10.4318C3.45271 10.4288 3.447 10.4275 3.4418 10.4248C3.43887 10.4233 3.43718 10.4205 3.43418 10.4191L1.63418 9.55052C1.5497 9.50981 1.4503 9.50981 1.36582 9.55052L0 10.2096V5.93518L1.36582 6.59424C1.36846 6.59551 1.37155 6.59495 1.37422 6.59615C1.45341 6.63432 1.54658 6.63432 1.62577 6.59615C1.62844 6.59495 1.63154 6.59551 1.63417 6.59424L3.43417 5.72568C3.48241 5.70221 3.52316 5.66657 3.55209 5.62255L5.4 6.51423V8.3619C5.39997 8.47158 5.46417 8.57184 5.56582 8.62089L7.2 9.40944V12.5257L5.56582 13.3143C5.56278 13.3158 5.56109 13.3185 5.55813 13.3201C5.55297 13.3228 5.54727 13.324 5.54223 13.327C5.51786 13.3419 5.49587 13.3602 5.47694 13.3812C5.4723 13.3863 5.46908 13.3918 5.46483 13.3971C5.44712 13.4192 5.43284 13.4436 5.42243 13.4696C5.41977 13.4762 5.41651 13.4821 5.41437 13.4889C5.40524 13.5162 5.40039 13.5446 5.4 13.5733V15.1314L2.1709 13.5733L3.43418 12.9637ZM7.2 13.1732V13.9734L6.3709 13.5733L7.2 13.1732ZM7.8 13.1732L8.6291 13.5733L7.8 13.9734V13.1732ZM9.58563 13.4889C9.58349 13.4821 9.58023 13.4762 9.57757 13.4696C9.56716 13.4436 9.55287 13.4192 9.53516 13.3971C9.53091 13.3918 9.52769 13.3863 9.52306 13.3812C9.50413 13.3602 9.48214 13.3419 9.45776 13.327C9.45273 13.324 9.44701 13.3228 9.44186 13.3201C9.43892 13.3185 9.43721 13.3158 9.43419 13.3143L7.8 12.5257V9.40944L9.43418 8.62089C9.53583 8.57184 9.60003 8.47158 9.6 8.3619V6.51423L11.4479 5.62255C11.4768 5.66657 11.5176 5.70221 11.5658 5.72568L13.3658 6.59424C13.3685 6.59551 13.3716 6.59495 13.3742 6.59615C13.4534 6.63432 13.5466 6.63432 13.6258 6.59615C13.6284 6.59495 13.6315 6.59551 13.6342 6.59424L15 5.93518V10.2096L13.6342 9.55052C13.5497 9.50981 13.4503 9.50981 13.3658 9.55052L11.5658 10.4191C11.5628 10.4205 11.5611 10.4233 11.5582 10.4248C11.553 10.4275 11.5473 10.4288 11.5422 10.4318C11.5179 10.4467 11.4959 10.465 11.4769 10.486C11.4723 10.4911 11.4691 10.4966 11.4648 10.5019C11.4471 10.524 11.4328 10.5484 11.4224 10.5744C11.4198 10.581 11.4165 10.5869 11.4144 10.5937C11.4052 10.621 11.4004 10.6494 11.4 10.6781V12.7047C11.4 12.8144 11.4642 12.9147 11.5658 12.9637L12.8291 13.5733L9.6 15.1314V13.5733C9.5996 13.5446 9.59476 13.5162 9.58563 13.4889V13.4889ZM13.8 11.7256L15 11.1466V12.5257L13.8 13.1048V11.7256ZM14.6291 3.44004L13.5 3.98488L12.3709 3.44004L13.5 2.89521L14.6291 3.44004ZM7.5 0L8.6291 0.544832L7.5 1.08966L6.3709 0.544832L7.5 0ZM1.5 2.89521L2.6291 3.44004L1.5 3.98488L0.370899 3.44004L1.5 2.89521ZM0 11.1466L1.2 11.7256V13.1048L0 12.5257V11.1466ZM6 14.0418L7.2 14.6208V16L6 15.421V14.0418ZM7.8 16V14.6208L9 14.0418V15.421L7.8 16Z" fill="currentColor"/>
</svg>
