<svg width="25" height="38" viewBox="0 0 25 38" fill="none" xmlns="http://www.w3.org/2000/svg">
<path d="M0.373657 21.7342L1.2854 21.3362L12.5047 16.4599L24.6263 21.7342L20.0751 31.1374L8.93056 32.7124L0.564226 23.6735L0.373657 21.7342Z" fill="#133444"/>
<path d="M22.106 15.9293C20.1044 13.518 17.2681 11.9491 14.1619 11.535L13.9638 11.5088C12.9946 11.3911 12.0147 11.3911 11.0455 11.5088L10.8456 11.5331C7.73867 11.9465 4.9019 13.5163 2.9015 15.9293V15.9293L2.39706 16.7663L1.55818 18.1601L0.945373 19.1802C0.945373 19.2045 0.921085 19.2381 0.911743 19.2624V19.2792L2.26254 20.0844L10.8568 25.1663L12.5159 26.1453V14.0012L10.8568 14.7485V12.9362L12.5159 12.1889L14.1731 12.9362L22.6067 16.7756L22.106 15.9293Z" fill="#C42370"/>
<path d="M25 24.7515C24.9881 26.7191 24.5428 28.6599 23.6958 30.436C22.8488 32.212 21.6209 33.7796 20.0994 35.0273C18.9279 35.9905 17.5908 36.7325 16.1535 37.2169C14.9801 37.602 13.7527 37.7975 12.5177 37.7961C5.60496 37.7961 0 31.6512 0 24.7515C0.00386618 23.7313 0.129305 22.7153 0.373664 21.7248L12.4953 28.8973L24.6188 21.7248C24.8738 22.7135 25.0019 23.7305 25 24.7515V24.7515Z" fill="#1C4D6B"/>
<path d="M11.0455 11.5182L12.5046 12.174L10.8456 12.9269V11.4267L11.0455 11.5182Z" fill="black"/>
<path d="M10.8456 14.7523L12.5046 13.9975V26.1453L10.8456 25.1663V14.7523Z" fill="black"/>
<path d="M12.5046 13.9975V26.1453L24.1218 19.2792L12.5046 13.9975Z" fill="#1D4259"/>
<path d="M12.5046 0V13.9974L24.1218 19.2792L12.5046 0Z" fill="#4B6B9A"/>
<path d="M12.5047 13.9975V26.1415L10.8456 25.1625L0.904266 19.2792H0.887451H0.911739C0.911739 19.2549 0.937896 19.2213 0.945369 19.197L2.39705 16.7831L10.8456 12.9531V14.7597L12.5047 13.9975Z" fill="#343535"/>
<path d="M12.5047 13.9975V26.1453L10.8456 25.1663L0.894924 19.2885L0.887451 19.2792L0.904266 19.2624L10.8456 14.7523L12.5047 13.9975Z" fill="#3E5578"/>
<path d="M12.5047 0V13.9974L0.887451 19.2792L12.5047 0Z" fill="#6DB2D8"/>
<path d="M7.80212 36.8003C7.97775 36.875 8.1515 36.9498 8.32525 37.0152C8.1515 36.9498 7.97775 36.875 7.80212 36.8003Z" fill="#335F8A"/>
<path d="M8.32532 37.0151C8.49907 37.0824 8.68217 37.1497 8.86339 37.202C8.68217 37.1497 8.49907 37.0899 8.32532 37.0151Z" fill="#335F8A"/>
<path d="M9.32104 37.3552C9.46117 37.3982 9.59382 37.4299 9.73394 37.4635C9.60129 37.4299 9.46117 37.3888 9.32104 37.3552Z" fill="#335F8A"/>
<path d="M0.373664 21.7342L12.4953 28.9066C12.3306 29.9958 12.0384 31.0618 11.6247 32.0828C10.6494 34.4369 8.69889 36.918 4.9006 35.0254C3.37886 33.7783 2.15076 32.2111 1.30373 30.4354C0.456689 28.6596 0.0115507 26.7189 0 24.7515C0.00707777 23.7346 0.132476 22.722 0.373664 21.7342V21.7342Z" fill="#6DB2D8"/>
<path d="M20.092 35.0254L20.0583 35.0515C19.9929 35.1001 19.9332 35.1506 19.8715 35.201L19.8547 35.216C19.7893 35.2739 19.7146 35.3243 19.6473 35.3748C19.5736 35.4344 19.4962 35.4893 19.4156 35.5392C19.3351 35.5899 19.2578 35.6454 19.184 35.7055C19.1092 35.7634 19.042 35.797 18.9766 35.8475L18.9336 35.8717C18.8607 35.9222 18.786 35.9633 18.7188 36.0119C18.7188 36.0119 18.7019 36.0119 18.6945 36.0287C18.6197 36.0791 18.545 36.1202 18.4703 36.1707C18.3955 36.2211 18.304 36.2622 18.2218 36.3108C18.1396 36.3594 18.0555 36.4023 17.9733 36.4434H17.964L17.7155 36.5668C17.6333 36.6079 17.5492 36.6508 17.4576 36.6919C17.3661 36.733 17.2839 36.7741 17.2017 36.8078C17.0279 36.8825 16.8523 36.9572 16.6785 37.0226C16.5048 37.088 16.3217 37.1553 16.1405 37.2095C16.0696 37.2361 15.9972 37.2586 15.9237 37.2767L15.6846 37.3514C15.5426 37.3926 15.41 37.4262 15.2698 37.4598C15.2194 37.4748 15.1615 37.4841 15.111 37.5009L15.0213 37.5177L14.7971 37.5663C14.7224 37.5831 14.6645 37.5925 14.5898 37.6074C14.5283 37.6228 14.4659 37.634 14.4029 37.641C14.3357 37.6504 14.2609 37.6672 14.1956 37.6747C14.1619 37.6747 14.1283 37.6747 14.0965 37.6915L13.9377 37.7083H13.8555C13.7981 37.7185 13.74 37.7241 13.6818 37.7251C13.61 37.7354 13.5376 37.741 13.465 37.7419C13.4071 37.7419 13.3585 37.7419 13.2988 37.7419C13.239 37.7419 13.1997 37.7513 13.1512 37.7513C13.0932 37.7513 13.0353 37.7513 12.9849 37.7513C12.9344 37.7513 12.8279 37.7513 12.7532 37.7513H12.2562C12.1785 37.7561 12.1005 37.7561 12.0227 37.7513C11.9648 37.7513 11.9069 37.7513 11.8489 37.7513C11.7985 37.7513 11.7499 37.7419 11.6995 37.7419C11.649 37.7419 11.5911 37.7419 11.5332 37.7419C11.4619 37.7326 11.3902 37.727 11.3183 37.7251C11.2604 37.7251 11.2025 37.7251 11.1446 37.7083H11.0605C11.0088 37.6981 10.9563 37.6925 10.9036 37.6915C10.87 37.6897 10.8368 37.684 10.8046 37.6747C10.7347 37.6682 10.6655 37.6569 10.5972 37.641C10.5299 37.641 10.472 37.6167 10.4103 37.6074C10.3405 37.5975 10.2713 37.5838 10.203 37.5663C10.1357 37.5495 10.0535 37.5345 9.97875 37.5177L9.88721 37.5009C9.82953 37.4968 9.77213 37.4893 9.71532 37.4785C9.57333 37.4449 9.4332 37.4038 9.30055 37.3701L9.05207 37.2954C8.97733 37.2711 8.9026 37.2543 8.83534 37.2281C8.64851 37.1702 8.47849 37.1048 8.29727 37.0413C8.11604 36.9778 7.94042 36.9012 7.77414 36.8264C7.69193 36.7853 7.60038 36.7517 7.51631 36.7106L7.26035 36.5854L7.01186 36.4621C6.92966 36.421 6.84745 36.3706 6.76338 36.3295C6.6793 36.2884 6.5971 36.2379 6.51489 36.1894C6.43268 36.1408 6.36542 36.0978 6.29069 36.0474L6.2664 36.0305C6.19102 35.9889 6.1186 35.9421 6.04968 35.8904L6.00858 35.8661C5.94318 35.825 5.86845 35.7746 5.80119 35.7241C5.73393 35.6737 5.64425 35.6176 5.56952 35.5579C5.49479 35.4981 5.41258 35.4514 5.33785 35.3934L5.13046 35.2346L5.11365 35.2197C5.04639 35.1693 4.98847 35.1188 4.92682 35.0702L4.89319 35.0441C8.68214 36.9348 10.6476 34.4481 11.6191 32.1089C12.0331 31.088 12.3259 30.022 12.4916 28.9328C12.6561 30.0251 12.9483 31.0942 13.3623 32.1183C14.345 34.4294 16.303 36.918 20.092 35.0254Z" fill="#529BBA"/>
<path d="M15.2661 37.4635C15.4062 37.4299 15.5482 37.3888 15.6809 37.3552C15.5482 37.3888 15.4062 37.4299 15.2661 37.4635Z" fill="#335F8A"/>
<path d="M16.1442 37.2076C16.331 37.1497 16.501 37.0824 16.6841 37.0208C16.5085 37.0899 16.3273 37.1497 16.1442 37.2076Z" fill="#335F8A"/>
<path d="M16.6841 37.0152C16.8578 36.9498 17.0316 36.875 17.2053 36.8003C17.0316 36.875 16.8578 36.9498 16.6841 37.0152Z" fill="#335F8A"/>
<path d="M25 24.7515C24.9881 26.7191 24.5428 28.6599 23.6958 30.436C22.8488 32.212 21.6209 33.7796 20.0994 35.0273C16.3104 36.918 14.345 34.4294 13.3734 32.0921C12.9603 31.071 12.6681 30.005 12.5028 28.916L24.6245 21.7435C24.8737 22.7267 24.9999 23.7371 25 24.7515V24.7515Z" fill="#4B6B9A"/>
</svg>
