<svg width="71" height="5" viewBox="0 0 71 5" fill="none"
    xmlns="http://www.w3.org/2000/svg">
    <path d="M68.1762 2.49866C67.6215 1.82577 67.2685 1.44126 66.5626 1.44126C65.8566 1.44126 65.5036 1.82577 64.9489 2.49866C64.3438 3.21961 63.6379 4.13281 62.1251 4.13281C60.6627 4.13281 59.9063 3.21961 59.3012 2.49866C58.7465 1.82577 58.3935 1.44126 57.6876 1.44126C56.9816 1.44126 56.6286 1.82577 56.0739 2.49866C55.4688 3.21961 54.7628 4.13281 53.25 4.13281C51.7877 4.13281 51.0313 3.21961 50.4262 2.49866C49.8715 1.82577 49.5185 1.44126 48.8125 1.44126C48.1066 1.44126 47.7536 1.82577 47.1989 2.49866C46.5938 3.21961 45.8878 4.13281 44.375 4.13281C42.8622 4.13281 42.1563 3.21961 41.5512 2.49866C40.9965 1.82577 40.6435 1.44126 39.9375 1.44126C39.2315 1.44126 38.8786 1.82577 38.3239 2.49866C37.7188 3.21961 37.0128 4.13281 35.5 4.13281V2.69091C36.206 2.69091 36.559 2.3064 37.1136 1.63351C37.7188 0.912563 38.4247 -0.000640994 39.9375 -0.000640994C41.4503 -0.000640994 42.1563 0.912563 42.7614 1.63351C43.3161 2.3064 43.6691 2.69091 44.375 2.69091C45.081 2.69091 45.434 2.3064 45.9887 1.63351C46.5938 0.912563 47.2997 -0.000640994 48.8125 -0.000640994C50.2749 -0.000640994 51.0313 0.912563 51.6364 1.63351C52.1911 2.3064 52.5441 2.69091 53.25 2.69091C53.956 2.69091 54.309 2.3064 54.8637 1.63351C55.4688 0.912563 56.1748 -0.000640994 57.6876 -0.000640994C59.1499 -0.000640994 59.9063 0.912563 60.5114 1.63351C61.0661 2.3064 61.4191 2.69091 62.1251 2.69091C62.831 2.69091 63.184 2.3064 63.7387 1.63351C64.3438 0.912563 65.0498 -0.000640994 66.5626 -0.000640994C68.0754 -0.000640994 68.7813 0.912563 69.3865 1.63351C69.9411 2.3064 70.2941 2.69091 71.0001 2.69091V4.13281C69.5377 4.13281 68.7813 3.21961 68.1762 2.49866Z" fill="#ffffff99"/>
    <path d="M32.6762 2.49866C32.1215 1.82577 31.7685 1.44126 31.0626 1.44126C30.3566 1.44126 30.0036 1.82577 29.4489 2.49866C28.8438 3.21961 28.1379 4.13281 26.6251 4.13281C25.1627 4.13281 24.4063 3.21961 23.8012 2.49866C23.2465 1.82577 22.8935 1.44126 22.1876 1.44126C21.4816 1.44126 21.1286 1.82577 20.5739 2.49866C19.9688 3.21961 19.2628 4.13281 17.75 4.13281C16.2877 4.13281 15.5313 3.21961 14.9262 2.49866C14.3715 1.82577 14.0185 1.44126 13.3125 1.44126C12.6066 1.44126 12.2536 1.82577 11.6989 2.49866C11.0938 3.21961 10.3878 4.13281 8.87502 4.13281C7.36223 4.13281 6.65627 3.21961 6.05115 2.49866C5.49646 1.82577 5.14348 1.44126 4.43751 1.44126C3.73154 1.44126 3.37856 1.82577 2.82387 2.49866C2.21876 3.21961 1.51279 4.13281 0 4.13281V2.69091C0.705968 2.69091 1.05895 2.3064 1.61364 1.63352C2.21876 0.912565 2.92472 -0.000640777 4.43751 -0.000640777C5.9503 -0.000640777 6.65627 0.912565 7.26138 1.63352C7.81607 2.3064 8.16905 2.69091 8.87502 2.69091C9.58099 2.69091 9.93397 2.3064 10.4887 1.63352C11.0938 0.912565 11.7997 -0.000640777 13.3125 -0.000640777C14.7749 -0.000640777 15.5313 0.912565 16.1364 1.63352C16.6911 2.3064 17.0441 2.69091 17.75 2.69091C18.456 2.69091 18.809 2.3064 19.3637 1.63352C19.9688 0.912565 20.6748 -0.000640777 22.1876 -0.000640777C23.6499 -0.000640777 24.4063 0.912565 25.0114 1.63352C25.5661 2.3064 25.9191 2.69091 26.6251 2.69091C27.331 2.69091 27.684 2.3064 28.2387 1.63352C28.8438 0.912565 29.5498 -0.000640777 31.0626 -0.000640777C32.5754 -0.000640777 33.2813 0.912565 33.8865 1.63352C34.4411 2.3064 34.7941 2.69091 35.5001 2.69091V4.13281C34.0377 4.13281 33.2813 3.21961 32.6762 2.49866Z" fill="#ffffff99"/>
</svg>
