<?xml version="1.0" encoding="UTF-8"?>
<svg width="17px" height="8px" viewBox="0 0 17 8" version="1.1" xmlns="http://www.w3.org/2000/svg" xmlns:xlink="http://www.w3.org/1999/xlink">
    <!-- Generator: Sketch 57.1 (83088) - https://sketch.com -->
    <title>link</title>
    <desc>Created with Sketch.</desc>
    <g id="Page-1" stroke="none" stroke-width="1" fill="none" fill-rule="evenodd">
        <g id="link" fill="currentColor" fill-rule="nonzero">
            <path d="M1.55135,3.79856 C1.55135,2.49945 2.68629,1.44345 4.0825,1.44345 L7.3485,1.44345 L7.3485,0 L4.0825,0 C1.82896,0 0,1.70175 0,3.79856 C0,5.89536 1.82896,7.59712 4.0825,7.59712 L7.3485,7.59712 L7.3485,6.15366 L4.0825,6.15366 C2.68629,6.15366 1.55135,5.09766 1.55135,3.79856 Z M4.899,4.55827 L11.431,4.55827 L11.431,3.03885 L4.899,3.03885 L4.899,4.55827 Z M12.2475,0 L8.9815,0 L8.9815,1.44345 L12.2475,1.44345 C13.6437,1.44345 14.7787,2.49945 14.7787,3.79856 C14.7787,5.09766 13.6437,6.15366 12.2475,6.15366 L8.9815,6.15366 L8.9815,7.59712 L12.2475,7.59712 C14.501,7.59712 16.33,5.89536 16.33,3.79856 C16.33,1.70175 14.501,0 12.2475,0 Z" id="Shape"></path>
        </g>
    </g>
</svg>