<?xml version="1.0" encoding="UTF-8"?>
<svg width="110px" height="31px" viewBox="0 0 110 31" version="1.1" xmlns="http://www.w3.org/2000/svg" xmlns:xlink="http://www.w3.org/1999/xlink">
    <!-- Generator: Sketch 52.5 (67469) - http://www.bohemiancoding.com/sketch -->
    <title>logo</title>
    <desc>Created with Sketch.</desc>
    <g id="Page-1" stroke="none" stroke-width="1" fill="none" fill-rule="evenodd">
        <g id="Desktop" transform="translate(-44.000000, -22.000000)" fill="#FFFFFF">
            <g id="logo" transform="translate(44.000000, 22.000000)">
                <path d="M38.6706043,6 C35.7566317,6 33.4854472,7.52542373 32.2855761,9.57384988 C31.3428203,11.1864407 31,13.0169492 31,15.0653753 C31,17.5060533 31.6856406,19.7723971 33.0997744,21.4285714 C34.3853505,22.9975787 36.3137147,24 38.7134568,24 C40.2990008,24 41.7988396,23.5205811 42.9987106,22.6924939 C44.3699919,21.7336562 45.3556002,20.1646489 45.6127155,18.464891 L42.8273005,18.464891 C42.6130378,19.3801453 42.31307,19.8595642 41.8416921,20.3389831 C41.1560515,21.0799031 40.0418855,21.472155 38.7134568,21.472155 C37.4278807,21.472155 36.3994198,21.0363196 35.6280741,20.251816 C34.5996132,19.2058111 33.9996777,17.5060533 33.9996777,15.937046 L45.9555358,15.937046 L45.9983883,14.1937046 C46.0412408,11.8837772 45.2270426,9.66101695 43.8557614,8.13559322 C42.5701853,6.82808717 40.8560837,6 38.6706043,6 Z M34.0425302,13.496368 C34.1282353,10.968523 35.6280741,8.44067797 38.6706043,8.44067797 C40.1704431,8.44067797 41.2846091,9.05084746 42.0131023,10.0096852 C42.6987429,10.9249395 43.0415632,12.2324455 43.0415632,13.496368 L34.0425302,13.496368 Z" id="Shape" fill-rule="nonzero"></path>
                <path d="M55.8017241,6 C53.9051724,6 51.7068966,6.98920863 50.7155172,8.74280576 L50.1982759,6.44964029 L48,6.44964029 L48,31 L50.8448276,31 L50.8448276,22.0521583 C51.75,23.6708633 53.9482759,24.5701439 55.7586207,24.5701439 C57.7413793,24.5701439 59.2931034,23.8507194 60.4137931,22.7715827 C62.137931,21.0629496 63,18.2751799 63,15.2176259 C63,12.294964 62.1810345,9.5971223 60.5431034,7.88848921 C59.5086207,6.71942446 57.8706897,6 55.8017241,6 Z M55.3275862,22.0971223 C54.0775862,22.0971223 53.2586207,21.557554 52.5689655,20.9280576 C51.1465517,19.6241007 50.6724138,17.5107914 50.6724138,15.307554 C50.6724138,13.1043165 51.1465517,10.9460432 52.5689655,9.68705036 C53.2586207,9.05755396 54.0775862,8.51798561 55.3275862,8.51798561 C59.1206897,8.51798561 60.112069,12.0701439 60.112069,15.307554 C60.112069,18.544964 59.1206897,22.0971223 55.3275862,22.0971223 Z" id="Shape" fill-rule="nonzero"></path>
                <path d="M73.6706043,6 C70.7566317,6 68.4854472,7.52542373 67.2855761,9.57384988 C66.3428203,11.1864407 66,13.0169492 66,15.0653753 C66,17.5060533 66.6856406,19.7723971 68.0997744,21.4285714 C69.3853505,22.9975787 71.3137147,24 73.7134568,24 C75.2990008,24 76.7988396,23.5205811 77.9987106,22.6924939 C79.3699919,21.7336562 80.3556002,20.1646489 80.6127155,18.464891 L77.8273005,18.464891 C77.6130378,19.3801453 77.31307,19.8595642 76.8416921,20.3389831 C76.1560515,21.0799031 75.0418855,21.472155 73.7134568,21.472155 C72.4278807,21.472155 71.3994198,21.0363196 70.6280741,20.251816 C69.5996132,19.2058111 68.9996777,17.5060533 68.9996777,15.937046 L80.9555358,15.937046 L80.9983883,14.1937046 C81.0412408,11.8837772 80.2270426,9.66101695 78.8557614,8.13559322 C77.5701853,6.82808717 75.8560837,6 73.6706043,6 Z M69.0425302,13.496368 C69.1282353,10.968523 70.6280741,8.44067797 73.6706043,8.44067797 C75.1704431,8.44067797 76.2846091,9.05084746 77.0131023,10.0096852 C77.6987429,10.9249395 78.0415632,12.2324455 78.0415632,13.496368 L69.0425302,13.496368 Z" id="Shape" fill-rule="nonzero"></path>
                <path d="M90.6706043,6 C87.7566317,6 85.4854472,7.52542373 84.2855761,9.57384988 C83.3428203,11.1864407 83,13.0169492 83,15.0653753 C83,17.5060533 83.6856406,19.7723971 85.0997744,21.4285714 C86.3853505,22.9975787 88.3137147,24 90.7134568,24 C92.2990008,24 93.7988396,23.5205811 94.9987106,22.6924939 C96.3699919,21.7336562 97.3556002,20.1646489 97.6127155,18.464891 L94.8273005,18.464891 C94.6130378,19.3801453 94.31307,19.8595642 93.8416921,20.3389831 C93.1560515,21.0799031 92.0418855,21.472155 90.7134568,21.472155 C89.4278807,21.472155 88.3994198,21.0363196 87.6280741,20.251816 C86.5996132,19.2058111 85.9996777,17.5060533 85.9996777,15.937046 L97.9555358,15.937046 L97.9983883,14.1937046 C98.0412408,11.8837772 97.2270426,9.66101695 95.8557614,8.13559322 C94.5701853,6.82808717 92.8560837,6 90.6706043,6 Z M86.0425302,13.496368 C86.1282353,10.968523 87.6280741,8.44067797 90.6706043,8.44067797 C92.1704431,8.44067797 93.2846091,9.05084746 94.0131023,10.0096852 C94.6987429,10.9249395 95.0415632,12.2324455 95.0415632,13.496368 L86.0425302,13.496368 Z" id="Shape" fill-rule="nonzero"></path>
                <polygon id="Path" points="110 9.16284987 109.308756 7.08651399 102.903226 9.20610687 102.35023 7 100 7 100 24 103.041475 24 103.041475 11.9312977"></polygon>
                <rect id="Rectangle" x="19" y="21" width="3" height="3"></rect>
                <rect id="Rectangle" x="19" y="7" width="3" height="3"></rect>
                <rect id="Rectangle" x="27" y="7" width="3" height="3"></rect>
                <rect id="Rectangle" x="12" y="7" width="3" height="3"></rect>
                <rect id="Rectangle" x="23" y="14" width="3" height="3"></rect>
                <rect id="Rectangle" x="16" y="14" width="3" height="3"></rect>
                <rect id="Rectangle" x="6" y="0" width="3" height="3"></rect>
                <rect id="Rectangle" x="0" y="0" width="3" height="24"></rect>
                <rect id="Rectangle" x="6" y="7" width="3" height="17"></rect>
            </g>
        </g>
    </g>
</svg>