<?xml version="1.0" encoding="UTF-8"?>
<svg width="26px" height="26px" viewBox="0 0 26 26" version="1.1" xmlns="http://www.w3.org/2000/svg" xmlns:xlink="http://www.w3.org/1999/xlink">
    <!-- Generator: Sketch 58 (84663) - https://sketch.com -->
    <title>lpt</title>
    <desc>Created with Sketch.</desc>
    <g id="Page-1" stroke="none" stroke-width="1" fill="none" fill-rule="evenodd">
        <g id="lpt" transform="translate(1.147965, 1.147965)">
            <g id="Group" transform="translate(8.138101, 6.658446)" fill="#FFFFFF">
                <polygon id="Path" points="10.1800247 6.11097411 10.1800247 4.26140567 8.33045623 4.26140567 8.33045623 6.11097411"></polygon>
                <g id="Path">
                    <polygon points="0.0591861899 6.11097411 1.90875462 6.11097411 1.90875462 4.26140567 0.0591861899 4.26140567"></polygon>
                    <polygon points="0.0591861899 1.98273736 1.90875462 1.98273736 1.90875462 0.133168927 0.0591861899 0.133168927"></polygon>
                    <polygon points="0.0591861899 10.2540074 1.90875462 10.2540074 1.90875462 8.40443896 0.0591861899 8.40443896"></polygon>
                </g>
                <g transform="translate(4.143033, 2.071517)" id="Path">
                    <polygon points="0.0591861899 1.93834772 1.90875462 1.93834772 1.90875462 0.0887792848 0.0591861899 0.0887792848"></polygon>
                    <polygon points="0.0591861899 6.08138101 1.90875462 6.08138101 1.90875462 4.23181258 0.0591861899 4.23181258"></polygon>
                </g>
            </g>
            <polygon id="Path" stroke="#FFFFFF" points="23.6892725 11.8520345 20.2268804 20.2268804 11.8520345 23.6892725 3.4919852 20.2268804 0.0147965475 11.8520345 3.4919852 3.47718866 11.8520345 0.0147965475 20.2268804 3.47718866"></polygon>
        </g>
    </g>
</svg>