<?xml version="1.0" encoding="UTF-8"?>
<svg width="26px" height="20px" viewBox="0 0 26 20" version="1.1" xmlns="http://www.w3.org/2000/svg" xmlns:xlink="http://www.w3.org/1999/xlink">
    <!-- Generator: Sketch 57.1 (83088) - https://sketch.com -->
    <title>wallet</title>
    <desc>Created with Sketch.</desc>
    <g id="Page-1" stroke="none" stroke-width="1" fill="none" fill-rule="evenodd">
        <g id="wallet" fill="currentColor" fill-rule="nonzero">
            <path d="M17.0315,9.9892 C17.0315,11.8109 18.5191,13.3201 20.3623,13.3201 L25.9784,13.3201 L25.9784,6.65836 L20.3408,6.65836 C18.5191,6.65836 17.0315,8.1675 17.0315,9.9892 Z M22.2919,9.9084 C22.2919,10.8731 21.5157,11.6492 20.551,11.6492 C19.5862,11.6492 18.8101,10.8731 18.8101,9.9084 C18.8101,8.9436 19.5862,8.1675 20.551,8.1675 C21.5157,8.1675 22.2919,8.9436 22.2919,9.9084 Z" id="Shape"></path>
            <path d="M20.3408,14.3656 C17.9316,14.3656 15.9643,12.3984 15.9643,9.9892 C15.9643,7.58 17.9316,5.61274 20.3408,5.61274 L25.9731,5.61274 L25.9731,3.0149 C25.9731,1.6513 24.8628,0.54102 23.4992,0.54102 L2.47388,0.54102 C1.11028,0.54102 0,1.6513 0,3.0149 L0,16.985 C0,18.3486 1.11028,19.4589 2.47388,19.4589 L23.5261,19.4589 C24.8897,19.4589 26,18.3486 26,16.985 L26,14.3656 L20.3408,14.3656 L20.3408,14.3656 Z" id="Path"></path>
        </g>
    </g>
</svg>